<svg xmlns="http://www.w3.org/2000/svg" viewBox="0 0 512 512"><path d="M256 0C114.6 0 0 114.5 0 255.9S114.6 512 256 512s256-114.6 256-256.1S397.4 0 256 0zm14.7 103.8c11.6-13.7 31.3-23.7 47.5-24.4 2.1 18.9-5.5 37.8-16.8 51.4-11.3 13.6-29.7 24.2-47.8 22.8-2.4-18.4 6.6-37.7 17.1-49.8zm92.2 257.8c-13.5 19.6-27.3 39.2-49.3 39.6-21.6.4-28.6-12.8-53.2-12.8s-32.4 12.4-52.8 13.2c-21.2.8-37.3-21.2-50.9-40.7-27.8-40-48.9-113.1-20.4-162.4 14.1-24.5 39.3-40 66.7-40.4 20.8-.4 40.4 14.1 53.2 14.1 12.8 0 36.6-17.3 61.7-14.8 10.5.4 40 4.2 58.9 31.9-1.5 1-35.2 20.5-34.8 61.3.4 48.8 42.7 65 43.2 65.2-.4 1.1-6.8 23.1-22.3 45.8z"/></svg>