<svg xmlns="http://www.w3.org/2000/svg" viewBox="0 0 512 512"><path d="M349-51.2c61.7 0 92.5 0 125.7 10.5 36.2 13.2 64.8 41.7 78 78 10.5 33.2 10.5 64 10.5 125.7v186c0 61.7 0 92.5-10.5 125.7-13.2 36.2-41.7 64.8-78 78-33.2 10.5-64 10.5-125.7 10.5H163c-61.7 0-92.5 0-125.7-10.5-36.2-13.2-64.8-41.7-78-78-10.5-33.2-10.5-64-10.5-125.7V163c0-61.7 0-92.5 10.5-125.7 13.2-36.2 41.7-64.8 78-78 33.2-10.5 64-10.5 125.7-10.5h186z" fill="#fff"/><linearGradient id="a" gradientUnits="userSpaceOnUse" x1="-48.424" y1="652.641" x2="-50.618" y2="650.447" gradientTransform="matrix(233.3333 0 0 -233.3333 11811 152283)"><stop offset="0" stop-color="#ff271d"/><stop offset="1" stop-color="#ff2e8e"/></linearGradient><path d="M256 512C114.6 512 0 397.4 0 256S114.6 0 256 0s256 114.6 256 256-114.6 256-256 256zm0-41c118.8 0 215-96.3 215-215S374.8 41 256 41 41 137.2 41 256s96.2 215 215 215zm-87-317.4h129.7c30.5 0 55.1 27.1 54.3 57.8-.3 16.5-9.4 30.6-25.5 36.2 24.3 9.4 37.5 23.3 36 50.4-1.5 35.3-28.7 60.4-64.8 60.4H169V153.6zm78.8 57.8v21h21c5.8 0 10.5-4.7 10.5-10.5s-4.7-10.5-10.5-10.5h-21zm0 63v26.3h23.7c7.2 0 13.1-5.9 13.1-13.1 0-7.2-5.9-13.1-13.1-13.1h-23.7z" fill="url(#a)"/></svg>