<svg width="69" height="80" xmlns="http://www.w3.org/2000/svg"><path d="M34.859 46.588h-5.42a1.176 1.176 0 01-.83-.326.934.934 0 01-.284-.77l.479-4.888c.046-.52.531-.92 1.113-.918h5.42c.316-.001.617.118.83.327.212.209.315.49.283.77l-.478 4.888c-.047.52-.532.919-1.113.917zm.868-9.568h-5.52c-.61 0-1.105-.476-1.105-1.064l1.502-16.51c.067-.537.542-.94 1.104-.936h5.521c.61 0 1.104.476 1.104 1.063l-1.546 16.522c-.07.516-.519.908-1.06.925zm32.464-19.254c.587.682.874 1.57.796 2.464L66.83 44.76a3.338 3.338 0 01-1.008 2.114L48.174 63.908a3.38 3.38 0 01-2.35.942H27.038L10.5 80l1.28-15.16H3.37a3.378 3.378 0 01-2.484-1.085 3.334 3.334 0 01-.873-2.553L5.145 3.006A3.36 3.36 0 018.503 0H51.33c.986 0 1.922.428 2.562 1.172L68.19 17.766zM55.11 40.08l1.372-15.14a3.334 3.334 0 00-.867-2.445l-8.067-9.259a3.377 3.377 0 00-2.541-1.152H19.596a3.36 3.36 0 00-3.358 3.006l-3.025 34.068a3.37 3.37 0 00.887 2.54 3.418 3.418 0 002.47 1.098h24.99a3.38 3.38 0 002.33-.922l10.214-9.67a3.338 3.338 0 001.009-2.124z" fill="#FFF"/></svg>