<svg version="1.1" id="Layer_1" xmlns="http://www.w3.org/2000/svg" x="0" y="0" viewBox="0 0 512 512" xml:space="preserve"><style>.st1{fill:#fff}</style><linearGradient id="SVGID_1_" gradientUnits="userSpaceOnUse" x1="-484.848" y1="624.721" x2="-191.152" y2="205.279" gradientTransform="translate(594 -159)"><stop offset="0" stop-color="#ffb900"/><stop offset="1" stop-color="#9100eb"/></linearGradient><circle cx="256" cy="256" r="256" fill="url(#SVGID_1_)"/><path class="st1" d="M329.3 416H182.7c-47.8 0-86.7-38.9-86.7-86.7V182.7c0-47.8 38.9-86.7 86.7-86.7h146.7c47.8 0 86.7 38.9 86.7 86.7v146.7c-.1 47.7-39 86.6-86.8 86.6zM182.7 122.7c-33.1 0-60 26.9-60 60v146.7c0 33.1 26.9 60 60 60h146.7c33.1 0 60-26.9 60-60V182.7c0-33.1-26.9-60-60-60H182.7z"/><path class="st1" d="M256 336c-44.1 0-80-35.9-80-80s35.9-80 80-80 80 35.9 80 80-35.9 80-80 80zm0-133.3c-29.4 0-53.3 23.9-53.3 53.3s23.9 53.3 53.3 53.3 53.3-23.9 53.3-53.3-23.9-53.3-53.3-53.3z"/><circle class="st1" cx="341" cy="171" r="18.3"/></svg>