<svg version="1.1" id="Слой_1" xmlns="http://www.w3.org/2000/svg" x="0" y="0" viewBox="0 0 512 512" xml:space="preserve"><style>.st1{fill:#fff}</style><g id="Group_91" transform="translate(3011 1165)"><circle id="Ellipse_64" cx="-2755" cy="-909" r="256" fill="#ff5419"/><g id="Group_90" transform="translate(-40 -97.1)"><path id="Path_190" class="st1" d="M-2672.3-905.8c56.3 0 102 45.7 102 102s-75.9 84.5-132.3 84.5l-1.7-178.3c11.1-4.8 17.7-8.2 32-8.2z"/><circle id="Ellipse_68" class="st1" cx="-2550.7" cy="-771.8" r="53.3"/><path id="Path_205" class="st1" d="M-2701.8-769.2h157v50.3h-157v-50.3z"/><path id="Path_191" class="st1" d="M-2911.3-807.6c2.1 0 2.1 5.5 2.1 7.7l3.4 32-3.4 35c0 2.1 0 5.5-2.1 5.5s-2.6-3.4-2.6-5.5l-3.4-35 3.4-30.7c.1-2.2.5-9 2.6-9z"/><path id="Path_192" class="st1" d="M-2894.2-815.7c2.1 0 2.1 6.6 2.1 9.2l3.4 38.1-3.4 41.7c0 2.5 0 6.6-2.1 6.6s-2.6-4.1-2.6-6.6l-3.4-41.7 3.4-36.6c0-2.6.5-10.7 2.6-10.7z"/><path id="Path_193" class="st1" d="M-2927.5-793.6c1.8 0 1.8 3.6 1.8 4.9l2.9 20.6-2.9 22.5c0 1.4 0 3.6-1.8 3.6s-2.2-2.2-2.2-3.6l-2.9-22.5 2.9-19.8c0-1.3.4-5.7 2.2-5.7z"/><path id="Path_194" class="st1" d="M-2876.5-817.4c2.4 0 2.4 6.8 2.4 9.4l3.8 39.2-3.8 42.8c0 2.6 0 6.8-2.4 6.8s-2.8-4.2-2.8-6.8l-3.8-42.8 3.8-37.6c0-2.7.5-11 2.8-11z"/><path id="Path_195" class="st1" d="M-2859.4-814c2.4 0 2.4 6.6 2.4 9.1l3.8 37.8-3.8 41.3c0 2.5 0 6.5-2.4 6.5s-2.8-4-2.8-6.5l-3.8-41.3 3.8-36.3c0-2.6.4-10.6 2.8-10.6z"/><path id="Path_196" class="st1" d="M-2842.3-842.6c2.4 0 3.6 3.1 3.6 6.4l3.4 69.5-3.4 42.2c0 3.3-1.2 6-3.6 6s-3.7-2.7-3.7-6l-3-42.2 3-69.5c0-3.3 1.3-6.4 3.7-6.4z"/><path id="Path_197" class="st1" d="M-2825.3-858.8c2.4 0 3.6 3.5 3.6 7.3l3.4 78.6-3.4 47.7c0 3.7-1.2 6.8-3.6 6.8s-3.7-3.1-3.7-6.8l-3-47.8 3-78.6c.1-3.7 1.4-7.2 3.7-7.2z"/><path id="Path_198" class="st1" d="M-2807.2-866.9c3-.4 4.3 2.9 4.3 6.8l3 86.3-3 48.6c0 3.9-1.9 7.2-4.3 7.2s-3.8-3.8-3.8-7.7l-2.6-49 2.1-84.1c.1-3.9 1.4-7.7 4.3-8.1z"/><path id="Path_199" class="st1" d="M-2789.7-870.3c3-.4 4.3 3 4.3 7l3.8 95.8-3.8 42.1c0 4-1.9 7.4-4.3 7.4s-3.8-3.8-3.8-7.8l-2.6-41.7 2.1-94.5c.1-4 1.3-7.9 4.3-8.3z"/><path id="Path_200" class="st1" d="M-2771.3-868.6c3-.4 4.3 3 4.3 6.9l3.8 94.7-3.8 41.7c0 3.9-1.9 7.3-4.3 7.3s-3.8-3.8-3.8-7.7l-2.6-41.2 2.1-93.4c0-4 1.3-7.9 4.3-8.3z"/><path id="Path_201" class="st1" d="M-2753-865.6c3.2-.4 4.5 2.9 4.5 6.8l4.1 92.9-4.1 40.8c0 3.8-2 7.1-4.5 7.1s-4.1-3.7-4.1-7.6l-2.7-40.4 2.3-91.6c0-3.8 1.3-7.6 4.5-8z"/><path id="Path_202" class="st1" d="M-2735.2-883.1c3.3-.5 6.1 3.3 6.1 7.6l3 103.8-1.7 25.7-1.3 20.7c.3 3.5-2.1 6.7-5.5 7.3-2.6 0-4.7-2.9-4.7-7.3l-3-46.4 2.4-102.4c0-4.3 1.4-8.5 4.7-9z"/><path id="Path_203" class="st1" d="M-2716.4-893.4c3.3-.5 6.1 3.5 6.1 8.1l3 110.2-1.7 27.3-1.3 22c0 4.6-2.9 7.7-5.5 7.7-2.9.2-5.4-2-5.6-5v-1l-3-43.9 3.2-115.8c.1-4.6 1.5-9.1 4.8-9.6z"/></g></g></svg>