<svg xmlns="http://www.w3.org/2000/svg" viewBox="0 0 512 512"><linearGradient id="a" gradientUnits="userSpaceOnUse" x1="213.591" y1="303.66" x2="315.672" y2="171.107" gradientTransform="matrix(1 0 0 -1 0 512)"><stop offset=".002" stop-color="#45cecc"/><stop offset="1" stop-color="#fc4036"/></linearGradient><path d="M355.3 186.7c-12.3 0-24-4.9-32.7-13.6-8.7-8.7-13.5-20.5-13.5-32.8 0-.8.1-1.8.1-2.9v-.5c.1-1.3.1-2.8.1-4.3-.1-2.7-.5-6.4-3-8.9-2.4-2.4-6.1-3.1-9-3.4-2.3-.2-4.8-.2-6.7-.1h-3.1c-1.9 0-4.2-.1-6.4.1-2.8.3-6.3 1-8.7 3.4-2.5 2.5-2.9 6.2-3 8.9 0 1.5 0 3 .1 4.3v.5c.1 1.1.1 2.1.1 2.9v165.1c0 9.2-2.7 18.1-7.8 25.7-5.1 7.6-12.3 13.6-20.7 17.1-8.4 3.5-17.7 4.4-26.7 2.6-9-1.8-17.2-6.2-23.7-12.7-6.5-6.5-10.9-14.7-12.7-23.7-1.8-9-.9-18.3 2.6-26.8s9.4-15.7 17-20.8c7.6-5.1 16.5-7.8 25.7-7.8.7 0 1.6 0 2.5.1h1.1c1.4 0 2.9.1 4.4 0 2.8-.1 6.5-.7 9-3.1 2.5-2.5 3-6.1 3.1-8.9.1-1.5 0-3 0-4.3v-.9c0-1-.1-1.8-.1-2.6v-.7c0-2 0-4.7-.3-7.2-.4-2.7-1.2-6-3.5-8.3-2.4-2.4-5.7-3.1-8.4-3.3-2-.2-4.2-.1-6-.1h-1.7c-16.9 0-33.5 5-47.5 14.4-14.1 9.4-25 22.8-31.5 38.5s-8.2 32.9-4.9 49.5c3.3 16.6 11.4 31.9 23.4 43.9 12 12 27.2 20.2 43.8 23.5 16.6 3.3 33.8 1.6 49.4-4.9 15.6-6.5 29-17.5 38.4-31.6a85.89 85.89 0 0014.4-47.6v-92.9c13.7 8.9 29.8 13.6 46.2 13.6.9 0 1.9.1 3 .1h.4c1.3.1 2.7.2 4.2.1 2.7 0 6.3-.5 8.8-3 2.3-2.4 3.2-5.9 3.5-8.8.3-2.7.3-5.5.3-7.6v-1.4c0-2 0-4.7-.3-7.2-.4-2.7-1.2-6-3.5-8.3l-2.3 2.2 2.3-2.2c-2.4-2.4-5.8-3.1-8.6-3.4-2.1-.2-4.5-.2-6.3-.1-.3.2-.8.2-1.3.2z" stroke="url(#a)" stroke-width="10"/><linearGradient id="b" gradientUnits="userSpaceOnUse" x1="421.802" y1="68.487" x2="7.003" y2="537.437" gradientTransform="matrix(1 0 0 -1 0 512)"><stop offset="0" stop-color="#ff3d33"/><stop offset="1" stop-color="#17f2f2"/></linearGradient><path d="M255.5 13.5h0c133.7 0 242 108.3 242 242h0c0 133.7-108.3 242-242 242h0c-133.7 0-242-108.3-242-242h0c0-133.7 108.3-242 242-242z" fill="none" stroke="url(#b)" stroke-width="27"/></svg>