<svg xmlns="http://www.w3.org/2000/svg" viewBox="0 0 512 512"><circle cx="256" cy="256" r="256" fill="#1cb7eb"/><path d="M392.5 164.3c-9.6 5.3-21.3 8.5-32 9.6 11.7-7.5 20.3-19.2 24.5-33.1-10.7 6.4-22.4 11.7-36.3 14.9-10.7-11.7-24.5-19.2-40.5-19.2-30.9 0-56.5 26.7-56.5 60.8 0 4.3 0 9.6 1.1 13.9-46.9-2.1-88.5-26.7-116.3-62.9-5.3 8.5-7.5 19.2-7.5 30.9 0 21.3 9.6 39.5 24.5 50.1-9.6 0-18.1-3.2-25.6-7.5v1.1c0 28.8 19.2 53.3 44.8 59.7-4.3 1.1-9.6 2.1-14.9 2.1-3.2 0-7.5 0-10.7-1.1 7.5 24.5 27.7 41.6 52.3 41.6-19.2 16-43.7 25.6-69.3 25.6-4.3 0-8.5 0-13.9-1.1 24.5 17.1 54.4 27.7 86.4 27.7 103.5 0 160-91.7 160-171.7v-7.5c12.9-10.5 22.5-21.1 29.9-33.9z" fill="#fff"/></svg>