<svg viewBox="0 0 512 512" xmlns="http://www.w3.org/2000/svg"><circle cx="256" cy="256" r="256" fill="#4d76a1"/><path d="M246.3 368.3h20.1s6.1-.7 9.2-4c2.9-3.1 2.8-8.8 2.8-8.8s-.4-27 12.1-30.9c12.3-3.9 28.2 26 45 37.6 12.7 8.7 22.3 6.8 22.3 6.8l44.9-.6s23.5-1.4 12.3-19.9c-.9-1.5-6.5-13.7-33.4-38.6-28.1-26.1-24.4-21.9 9.5-67.1 20.7-27.5 28.9-44.3 26.3-51.5-2.5-6.9-17.6-5-17.6-5l-50.6.3s-3.7-.5-6.5 1.1c-2.7 1.6-4.5 5.4-4.5 5.4s-8 21.3-18.7 39.4c-22.5 38.2-31.5 40.2-35.2 37.9-8.6-5.6-6.4-22.2-6.4-34.1 0-37 5.6-52.5-10.9-56.5-5.5-1.3-9.5-2.2-23.6-2.3-18-.2-33.3 0-42 4.3-5.7 2.8-10.2 9.1-7.5 9.4 3.3.4 10.9 2.1 14.9 7.5 5.2 7 5 22.9 5 22.9s3 43.6-7 49c-6.8 3.7-16.2-3.9-36.2-38.5-10.3-17.8-18-37.4-18-37.4s-1.5-3.7-4.2-5.6c-3.3-2.4-7.8-3.1-7.8-3.1l-48 .3s-7.2.2-9.9 3.3c-2.3 2.8-.2 8.6-.2 8.6s37.6 88 80.2 132.3c39.3 40.5 83.6 37.8 83.6 37.8zm0 0" fill-rule="evenodd" clip-rule="evenodd" fill="#fff"/></svg>