<svg xmlns="http://www.w3.org/2000/svg" viewBox="0 0 512 512"><path d="M501.7 68.3C489.1 38.5 463.9 15.9 433 6.6 412.8 1.5 392-.6 371.2.1H140.9c-20.8-.7-41.6 1.5-61.8 6.5-31 9.3-56.2 31.9-68.7 61.7C2.5 91.7-.9 116.3.2 140.9v230.3c-1.1 24.6 2.3 49.2 10.1 72.5 12.6 29.8 37.8 52.4 68.7 61.7 20.2 5.1 41 7.2 61.8 6.5H371c20.8.7 41.6-1.5 61.8-6.5 31-9.3 56.2-31.9 68.7-61.7 7.8-23.4 11.2-47.9 10.1-72.5V140.9c1.3-24.6-2.1-49.2-9.9-72.6z" fill="#fff"/><g transform="translate(8 5)"><ellipse cx="243.5" cy="290.3" rx="158.2" ry="158" fill="#fc0"/><path d="M322.7 129.2V277l-.3.1v.2c0 14.5-1 27.9-3 34.8-9.4 33.1-39.9 57.1-76.1 57.1-43.7 0-78.6-35.3-78.6-78.9s35-78.9 78.6-78.9c20.6 0 39.3 7.9 53.4 20.7 4.6 4.2 8.7 8.9 12.2 14.1-1-4.6-1.9-10.5-1.9-15.4V53.2l103 31.5v71.4l-87.3-26.9z" fill="#f33"/></g></svg>