<svg viewBox="0 0 512 512" xmlns="http://www.w3.org/2000/svg"><path d="M512 256c0 141.4-114.6 256-256 256S0 397.4 0 256 114.6 0 256 0s256 114.6 256 256z" fill="#CD201F"/><path d="M391.1 194.6c-2.3-19.9-7.1-25.7-10.5-28.4-5.4-4.2-15.2-5.7-28.3-6.6-21-1.4-56.7-2.3-95.2-2.3-38.6 0-74.2.8-95.2 2.3-13.1.9-22.9 2.4-28.3 6.6-3.4 2.7-8.1 8.5-10.5 28.4-3.4 28.7-3.4 94.1 0 122.8 2.4 19.9 7.1 25.7 10.5 28.4 5.4 4.2 15.2 5.7 28.3 6.6 21 1.4 56.6 2.3 95.2 2.3s74.2-.9 95.2-2.3c13.1-.9 22.9-2.4 28.3-6.6 3.4-2.6 8.1-8.5 10.5-28.4 3.4-28.7 3.4-94.1 0-122.8zm-167 104.3V213l82.4 42.9-82.4 43z" fill="#FFF"/></svg>